<svg width="63" height="45" viewBox="0 0 63 45" fill="none" xmlns="http://www.w3.org/2000/svg">
<g clip-path="url(#clip0_88_13)">
<mask id="mask0_88_13" style="mask-type:luminance" maskUnits="userSpaceOnUse" x="0" y="0" width="63" height="45">
<path d="M62.146 0H0V44.2266H62.146V0Z" fill="white"/>
</mask>
<g mask="url(#mask0_88_13)">
<path d="M60.9599 6.83625C60.2324 4.14735 58.132 2.04689 55.443 1.31928C50.6055 0 31.1362 0 31.1362 0C31.1362 0 11.6669 0.0399781 6.82958 1.35925C4.14064 2.08687 2.0402 4.18734 1.31258 6.87624C-0.150614 15.4715 -0.718304 28.5683 1.35256 36.8198C2.08017 39.5088 4.18063 41.6092 6.86953 42.3367C11.7069 43.6562 31.1762 43.6562 31.1762 43.6562C31.1762 43.6562 50.6455 43.6562 55.483 42.3367C58.1717 41.6092 60.2724 39.5088 60.9999 36.8198C62.5429 28.2126 63.0187 15.1237 60.9599 6.83625Z" fill="#FF0000"/>
<path d="M24.9396 31.1829L41.0907 21.828L24.9396 12.4732V31.1829Z" fill="white"/>
</g>
</g>
<defs>
<clipPath id="clip0_88_13">
<rect width="62.146" height="44.2266" fill="white"/>
</clipPath>
</defs>
</svg>
