<svg width="200" height="45" viewBox="0 0 200 45" fill="none" xmlns="http://www.w3.org/2000/svg">
<g clip-path="url(#clip0_88_32)">
<mask id="mask0_88_32" style="mask-type:luminance" maskUnits="userSpaceOnUse" x="0" y="0" width="63" height="45">
<path d="M62.146 0H0V44.2266H62.146V0Z" fill="white"/>
</mask>
<g mask="url(#mask0_88_32)">
<path d="M60.9599 6.83625C60.2324 4.14735 58.132 2.04689 55.443 1.31928C50.6055 0 31.1362 0 31.1362 0C31.1362 0 11.6669 0.0399781 6.82958 1.35925C4.14064 2.08687 2.0402 4.18734 1.31258 6.87624C-0.150614 15.4715 -0.718304 28.5683 1.35256 36.8198C2.08017 39.5088 4.18063 41.6092 6.86953 42.3367C11.7069 43.6562 31.1762 43.6562 31.1762 43.6562C31.1762 43.6562 50.6455 43.6562 55.483 42.3367C58.1717 41.6092 60.2724 39.5088 60.9999 36.8198C62.5429 28.2126 63.0187 15.1237 60.9599 6.83625Z" fill="#FF0000"/>
<path d="M24.9396 31.1829L41.0907 21.828L24.9396 12.4732V31.1829Z" fill="white"/>
</g>
</g>
<g clip-path="url(#clip1_88_32)">
<path d="M191.894 12.673C194.013 12.673 195.612 13.0728 196.731 13.8324C197.851 14.592 198.651 15.7913 199.13 17.4304C199.61 19.0695 199.81 21.3083 199.81 24.1867V28.8642H189.535V30.3034L189.696 34.2612C189.815 35.1407 190.015 35.7804 190.335 36.1802C190.655 36.5799 191.175 36.7798 191.854 36.7798C192.774 36.7798 193.413 36.42 193.733 35.7004C194.093 34.9808 194.253 33.7814 194.293 32.1424L199.61 32.4622C199.65 32.7021 199.65 33.0219 199.65 33.4216C199.65 35.9403 198.97 37.8193 197.571 39.0586C196.172 40.298 194.253 40.9374 191.734 40.9374C188.696 40.9374 186.577 39.9782 185.378 38.0991C184.178 36.2201 183.539 33.2617 183.539 29.3039V24.4666C183.675 17.6703 184.87 12.693 191.894 12.673ZM117.975 13.1928V33.2218C117.975 34.4211 118.095 35.3006 118.375 35.8203C118.942 36.9318 120.414 36.6479 121.213 36.1002C121.675 35.7882 122.047 35.3609 122.292 34.8609V13.1928H128.409V40.4978H123.612L123.092 37.1396H122.972C121.653 39.6583 119.694 40.9374 117.095 40.9374C113.096 40.9275 112.117 38.0461 111.884 35.1196L111.869 34.913C111.839 34.4653 111.824 34.0181 111.818 33.5816V13.1928H117.975ZM149.518 13.1928V33.2218C149.518 34.4211 149.637 35.3006 149.917 35.8203C150.485 36.9318 151.956 36.6479 152.756 36.1002C153.217 35.7882 153.59 35.3609 153.835 34.8609V13.1928H159.952V40.4978H155.154L154.635 37.1396H154.515C153.195 39.6583 151.236 40.9374 148.638 40.9374C144.638 40.9275 143.66 38.0461 143.427 35.1196L143.412 34.913C143.381 34.4653 143.367 34.0181 143.361 33.5816V13.1928H149.518ZM100.224 12.673C102.223 12.673 103.863 13.0728 105.062 13.9124C106.261 14.7519 107.181 16.0312 107.74 17.7902C108.3 19.5493 108.58 21.908 108.58 24.8264V28.7842C108.58 31.7026 108.3 34.0213 107.74 35.7804C107.181 37.5394 106.301 38.8187 105.062 39.6583C103.822 40.4578 102.143 40.8978 100.065 40.8978C97.9056 40.9374 96.2266 40.4978 94.9874 39.6983C93.748 38.8588 92.8684 37.5794 92.3487 35.8203C91.8291 34.0613 91.5892 31.7426 91.5892 28.8242V24.8664C91.5892 21.9479 91.8691 19.5493 92.4688 17.7902C93.0685 15.9912 93.9878 14.7119 95.2673 13.9124C96.5464 13.1128 98.1855 12.673 100.224 12.673ZM169.547 1.71904V16.1111H169.587C170.146 15.0717 170.866 14.2322 171.865 13.5925C172.799 12.9647 173.899 12.6306 175.023 12.6331C176.503 12.6331 177.622 13.0328 178.462 13.7924C179.301 14.592 179.901 15.8313 180.26 17.5504C180.609 19.2157 180.808 21.5189 180.82 24.4235L180.82 24.7064V29.0241C180.82 33.0618 180.301 36.0602 179.341 37.9792C178.342 39.8981 176.823 40.8577 174.744 40.8577C173.584 40.8577 172.545 40.5779 171.586 40.0582C170.736 39.5633 170.033 38.8538 169.546 38.0025L169.467 37.8592H169.347L168.707 40.4578H163.63V1.71904H169.547ZM145.08 3.11827V8.07555H139.003V40.4978H133.007V8.07555H126.89V3.11827H145.08ZM79.1559 3.11827L79.1593 3.13333C79.218 3.39334 80.0263 6.98677 80.9154 11.1732L80.9855 11.5049C81.0206 11.6713 81.0561 11.8385 81.0915 12.0064L81.1624 12.3429C81.1743 12.3991 81.1861 12.4554 81.1979 12.5117L81.2688 12.8503C81.2806 12.9068 81.2925 12.9633 81.3043 13.0199L81.3748 13.3598L81.4781 13.8565C82.0782 16.7556 82.6513 19.6632 82.994 21.748H83.1538C83.4824 19.8778 83.9594 17.4846 84.468 15.0412L84.6014 14.4029C84.6685 14.0836 84.7357 13.764 84.8031 13.4454L84.908 12.9506C85.8867 8.34754 86.8604 4.04727 87.0419 3.25L87.0534 3.19851C87.0656 3.14566 87.0717 3.11827 87.0717 3.11827H93.1883L86.1124 28.3444V40.4578H80.0755V28.3844H80.0354L73.0392 3.11827H79.1559ZM100.104 16.9107C99.2648 16.9107 98.7051 17.3505 98.3456 18.27C97.9857 19.1895 97.826 20.5887 97.826 22.5476V31.063C97.826 33.0618 97.9857 34.541 98.3056 35.4206C98.6255 36.3001 99.2252 36.7399 100.104 36.7399C100.944 36.7399 101.544 36.3001 101.904 35.4206C102.263 34.541 102.423 33.0618 102.423 31.063V22.5476C102.423 20.5887 102.263 19.1495 101.904 18.27C101.544 17.3505 100.944 16.9107 100.104 16.9107ZM170.626 17.7103C170.139 18.16 169.792 18.7152 169.586 19.4087L169.547 19.5493V35.0608C170.042 35.9003 170.746 36.46 171.985 36.5C172.625 36.5 173.145 36.2601 173.544 35.7804C173.944 35.3006 174.224 34.5011 174.384 33.3817C174.537 32.3071 174.617 30.8272 174.624 28.942L174.624 28.7042V25.1462C174.624 22.9874 174.544 21.3483 174.424 20.1889C174.264 19.0296 174.064 18.19 173.704 17.7103C173.008 16.7108 171.506 16.7228 170.626 17.7103ZM191.774 16.7908C191.095 16.8307 190.615 17.0306 190.335 17.3904C190.015 17.7902 189.815 18.3899 189.696 19.2694C189.578 20.1313 189.537 23.1434 189.535 23.2635V25.2262H194.013L194.013 23.4953V23.5286C194.01 24.1337 193.998 23.1773 193.97 22.0034L193.967 21.8457C193.941 20.8139 193.905 19.6635 193.853 19.2694C193.733 18.3499 193.533 17.7103 193.214 17.3505C192.894 16.9907 192.414 16.7908 191.774 16.7908Z" fill="#FBFCFD"/>
</g>
<defs>
<clipPath id="clip0_88_32">
<rect width="62.146" height="44.2266" fill="white"/>
</clipPath>
<clipPath id="clip1_88_32">
<rect width="126.961" height="44.2266" fill="white" transform="translate(73.0392)"/>
</clipPath>
</defs>
</svg>
