<svg width="127" height="45" viewBox="0 0 127 45" fill="none" xmlns="http://www.w3.org/2000/svg">
<g clip-path="url(#clip0_88_20)">
<path d="M118.894 12.673C121.013 12.673 122.612 13.0728 123.731 13.8324C124.851 14.592 125.651 15.7913 126.13 17.4304C126.61 19.0695 126.81 21.3083 126.81 24.1867V28.8642H116.535V30.3034L116.696 34.2612C116.815 35.1407 117.015 35.7804 117.335 36.1802C117.655 36.5799 118.175 36.7798 118.854 36.7798C119.774 36.7798 120.413 36.42 120.733 35.7004C121.093 34.9808 121.253 33.7814 121.293 32.1424L126.61 32.4622C126.65 32.7021 126.65 33.0219 126.65 33.4216C126.65 35.9403 125.97 37.8193 124.571 39.0586C123.172 40.298 121.253 40.9374 118.734 40.9374C115.696 40.9374 113.577 39.9782 112.378 38.0991C111.178 36.2201 110.539 33.2617 110.539 29.3039V24.4666C110.675 17.6703 111.87 12.693 118.894 12.673ZM44.9746 13.1928V33.2218C44.9746 34.4211 45.0947 35.3006 45.3745 35.8203C45.9422 36.9318 47.4135 36.6479 48.213 36.1002C48.6748 35.7882 49.0469 35.3609 49.2924 34.8609V13.1928H55.409V40.4978H50.6116L50.0919 37.1396H49.9722C48.6526 39.6583 46.6937 40.9374 44.0954 40.9374C40.0956 40.9275 39.1172 38.0461 38.8843 35.1196L38.869 34.913C38.8385 34.4653 38.8244 34.0181 38.8183 33.5816V13.1928H44.9746ZM76.5177 13.1928V33.2218C76.5177 34.4211 76.6374 35.3006 76.9172 35.8203C77.4849 36.9318 78.9562 36.6479 79.7558 36.1002C80.2175 35.7882 80.5896 35.3609 80.8351 34.8609V13.1928H86.9517V40.4978H82.1543L81.6346 37.1396H81.5149C80.1953 39.6583 78.2364 40.9374 75.6381 40.9374C71.6383 40.9275 70.6599 38.0461 70.427 35.1196L70.4117 34.913C70.3812 34.4653 70.3671 34.0181 70.361 33.5816V13.1928H76.5177ZM27.2245 12.673C29.2235 12.673 30.8625 13.0728 32.062 13.9124C33.261 14.7519 34.1806 16.0312 34.7403 17.7902C35.3 19.5493 35.5799 21.908 35.5799 24.8264V28.7842C35.5799 31.7026 35.3 34.0213 34.7403 35.7804C34.1806 37.5394 33.3011 38.8187 32.062 39.6583C30.8225 40.4578 29.1434 40.8978 27.0647 40.8978C24.9056 40.9374 23.2266 40.4978 21.9874 39.6983C20.748 38.8588 19.8684 37.5794 19.3487 35.8203C18.8291 34.0613 18.5892 31.7426 18.5892 28.8242V24.8664C18.5892 21.9479 18.8691 19.5493 19.4688 17.7902C20.0685 15.9912 20.9878 14.7119 22.2673 13.9124C23.5464 13.1128 25.1855 12.673 27.2245 12.673ZM96.5466 1.71904V16.1111H96.5866C97.1463 15.0717 97.8658 14.2322 98.8654 13.5925C99.7988 12.9647 100.899 12.6306 102.023 12.6331C103.503 12.6331 104.622 13.0328 105.462 13.7924C106.301 14.592 106.901 15.8313 107.26 17.5504C107.609 19.2157 107.808 21.5189 107.82 24.4235L107.82 24.7064V29.0241C107.82 33.0618 107.301 36.0602 106.341 37.9792C105.342 39.8981 103.823 40.8577 101.744 40.8577C100.584 40.8577 99.5449 40.5779 98.5856 40.0582C97.7361 39.5633 97.0331 38.8538 96.5458 38.0025L96.4665 37.8592H96.3468L95.7071 40.4578H90.6298V1.71904H96.5466ZM72.0798 3.11827V8.07555H66.0032V40.4978H60.0067V8.07555H53.8901V3.11827H72.0798ZM6.15586 3.11827L6.15929 3.13333C6.218 3.39334 7.02628 6.98677 7.91539 11.1732L7.98554 11.5049C8.02062 11.6713 8.05608 11.8385 8.09153 12.0064L8.16245 12.3429C8.17427 12.3991 8.18609 12.4554 8.19791 12.5117L8.26882 12.8503C8.28064 12.9068 8.29246 12.9633 8.30428 13.0199L8.37481 13.3598L8.47813 13.8565C9.07824 16.7556 9.65128 19.6632 9.99404 21.748H10.1538C10.4824 19.8778 10.9594 17.4846 11.468 15.0412L11.6014 14.4029C11.6685 14.0836 11.7357 13.764 11.8031 13.4454L11.908 12.9506C12.8867 8.34754 13.8604 4.04727 14.0419 3.25L14.0534 3.19851C14.0656 3.14566 14.0717 3.11827 14.0717 3.11827H20.1883L13.1124 28.3444V40.4578H7.07547V28.3844H7.03543L0.0392456 3.11827H6.15586ZM27.1044 16.9107C26.2648 16.9107 25.7051 17.3505 25.3456 18.27C24.9857 19.1895 24.826 20.5887 24.826 22.5476V31.063C24.826 33.0618 24.9857 34.541 25.3056 35.4206C25.6255 36.3001 26.2252 36.7399 27.1044 36.7399C27.9439 36.7399 28.5437 36.3001 28.9036 35.4206C29.2635 34.541 29.4232 33.0618 29.4232 31.063V22.5476C29.4232 20.5887 29.2635 19.1495 28.9036 18.27C28.5437 17.3505 27.9439 16.9107 27.1044 16.9107ZM97.626 17.7103C97.1387 18.16 96.7921 18.7152 96.5859 19.4087L96.5466 19.5493V35.0608C97.0422 35.9003 97.7461 36.46 98.9852 36.5C99.6249 36.5 100.145 36.2601 100.544 35.7804C100.944 35.3006 101.224 34.5011 101.384 33.3817C101.537 32.3071 101.617 30.8272 101.624 28.942L101.624 28.7042V25.1462C101.624 22.9874 101.544 21.3483 101.424 20.1889C101.264 19.0296 101.064 18.19 100.704 17.7103C100.008 16.7108 98.5055 16.7228 97.626 17.7103ZM118.774 16.7908C118.095 16.8307 117.615 17.0306 117.335 17.3904C117.015 17.7902 116.815 18.3899 116.696 19.2694C116.578 20.1313 116.537 23.1434 116.535 23.2635V25.2262H121.013L121.013 23.4953V23.5286C121.01 24.1337 120.998 23.1773 120.97 22.0034L120.967 21.8457C120.941 20.8139 120.905 19.6635 120.853 19.2694C120.733 18.3499 120.533 17.7103 120.214 17.3505C119.894 16.9907 119.414 16.7908 118.774 16.7908Z" fill="#FBFCFD"/>
</g>
<defs>
<clipPath id="clip0_88_20">
<rect width="126.961" height="44.2266" fill="white" transform="translate(0.0392456)"/>
</clipPath>
</defs>
</svg>
